<svg xmlns="http://www.w3.org/2000/svg" width="100" height="130" viewBox="0 0 100 130"><rect width="100%" height="100%" fill="#DDDDDD"/><path fill="#999999" d="M23.32 68.77h1.82v1.29h-5.6v-1.29h2.05v-5.91q0-.35.02-.72l-1.45 1.22q-.13.1-.25.12-.12.03-.23.01t-.19-.08q-.09-.05-.13-.11l-.55-.75 3.09-2.63h1.42zM33.79 65q0 1.32-.29 2.3-.28.97-.78 1.61t-1.18.95q-.69.31-1.48.31t-1.46-.31q-.68-.31-1.18-.95-.49-.64-.77-1.61-.28-.98-.28-2.3 0-1.33.28-2.3.28-.98.77-1.61.5-.64 1.18-.95.67-.31 1.46-.31t1.48.31q.68.31 1.18.95.5.63.78 1.61.29.97.29 2.3M32 65q0-1.1-.16-1.82t-.43-1.15-.62-.6-.73-.17q-.37 0-.71.17-.35.17-.62.6-.26.43-.42 1.15T28.15 65t.16 1.82.42 1.15q.27.42.62.6.34.17.71.17.38 0 .73-.17.35-.18.62-.6.27-.43.43-1.15T32 65m9.91 0q0 1.32-.29 2.3-.28.97-.78 1.61t-1.18.95q-.69.31-1.48.31t-1.46-.31q-.68-.31-1.18-.95-.49-.64-.77-1.61-.28-.98-.28-2.3 0-1.33.28-2.3.28-.98.77-1.61.5-.64 1.18-.95.67-.31 1.46-.31t1.48.31q.68.31 1.18.95.5.63.78 1.61.29.97.29 2.3m-1.79 0q0-1.1-.16-1.82t-.43-1.15-.62-.6-.73-.17q-.37 0-.71.17-.35.17-.62.6-.26.43-.42 1.15T36.27 65t.16 1.82.42 1.15q.27.42.62.6.34.17.71.17.38 0 .73-.17.35-.18.62-.6.27-.43.43-1.15t.16-1.82m12.9 2.74-.91.91-2.38-2.38-2.39 2.39-.92-.9 2.4-2.4-2.29-2.29.91-.91 2.29 2.29 2.26-2.27.93.91-2.28 2.27zm9.59 1.03h1.82v1.29h-5.6v-1.29h2.05v-5.91q0-.35.02-.72l-1.46 1.22q-.12.1-.25.12-.12.03-.23.01t-.19-.08q-.08-.05-.13-.11l-.54-.75 3.09-2.63h1.42zm4.36-5.85-.91-.16q.1-.73.4-1.28t.76-.92q.45-.36 1.03-.55.59-.18 1.26-.18.7 0 1.26.2.57.19.96.55.4.35.62.83.21.47.21 1.03 0 .48-.11.85-.11.36-.31.64-.2.27-.5.46t-.68.31q.91.29 1.36.88.44.59.44 1.48 0 .75-.28 1.33-.28.59-.75.98-.48.4-1.1.6-.63.2-1.33.2-.76 0-1.33-.17-.57-.18-.99-.52t-.71-.84q-.3-.5-.51-1.15l.77-.31q.3-.13.56-.07t.38.28q.13.25.28.49.15.23.36.42t.49.3q.29.12.68.12.44 0 .77-.15.33-.14.55-.37t.33-.52q.1-.28.1-.57 0-.36-.07-.66-.08-.3-.32-.51-.25-.21-.71-.33-.46-.11-1.23-.11v-1.24q.64 0 1.06-.12.42-.11.67-.31t.35-.48q.09-.28.09-.61 0-.72-.4-1.09-.39-.37-1.06-.37-.31 0-.57.09t-.46.24q-.21.16-.35.37t-.21.46q-.12.33-.31.43-.19.11-.54.05M81.19 65q0 1.32-.28 2.3-.29.97-.79 1.61t-1.18.95-1.47.31-1.47-.31q-.67-.31-1.17-.95t-.78-1.61q-.28-.98-.28-2.3 0-1.33.28-2.3.28-.98.78-1.61.5-.64 1.17-.95.68-.31 1.47-.31t1.47.31 1.18.95q.5.63.79 1.61.28.97.28 2.3m-1.78 0q0-1.1-.16-1.82-.17-.72-.43-1.15-.27-.43-.62-.6t-.73-.17q-.37 0-.72.17t-.61.6q-.27.43-.43 1.15-.15.72-.15 1.82t.15 1.82q.16.72.43 1.15.26.42.61.6.35.17.72.17.38 0 .73-.17.35-.18.62-.6.26-.43.43-1.15.16-.72.16-1.82"/></svg>