<svg xmlns="http://www.w3.org/2000/svg" width="100" height="120" viewBox="0 0 100 120"><rect width="100%" height="100%" fill="#DDDDDD"/><path fill="#999999" d="M23.32 63.77h1.82v1.29h-5.6v-1.29h2.05v-5.91q0-.35.02-.72l-1.45 1.22q-.13.1-.25.12-.12.03-.23.01t-.19-.08q-.09-.05-.13-.11l-.55-.75 3.09-2.63h1.42zM33.79 60q0 1.32-.29 2.3-.28.97-.78 1.61t-1.18.95q-.69.31-1.48.31t-1.46-.31q-.68-.31-1.18-.95-.49-.64-.77-1.61-.28-.98-.28-2.3 0-1.33.28-2.3.28-.98.77-1.61.5-.64 1.18-.95.67-.31 1.46-.31t1.48.31q.68.31 1.18.95.5.63.78 1.61.29.97.29 2.3M32 60q0-1.1-.16-1.82t-.43-1.15-.62-.6-.73-.17q-.37 0-.71.17-.35.17-.62.6-.26.43-.42 1.15T28.15 60t.16 1.82.42 1.15q.27.42.62.6.34.17.71.17.38 0 .73-.17.35-.18.62-.6.27-.43.43-1.15T32 60m9.91 0q0 1.32-.29 2.3-.28.97-.78 1.61t-1.18.95q-.69.31-1.48.31t-1.46-.31q-.68-.31-1.18-.95-.49-.64-.77-1.61-.28-.98-.28-2.3 0-1.33.28-2.3.28-.98.77-1.61.5-.64 1.18-.95.67-.31 1.46-.31t1.48.31q.68.31 1.18.95.5.63.78 1.61.29.97.29 2.3m-1.79 0q0-1.1-.16-1.82t-.43-1.15-.62-.6-.73-.17q-.37 0-.71.17-.35.17-.62.6-.26.43-.42 1.15T36.27 60t.16 1.82.42 1.15q.27.42.62.6.34.17.71.17.38 0 .73-.17.35-.18.62-.6.27-.43.43-1.15t.16-1.82m12.9 2.74-.91.91-2.38-2.38-2.39 2.39-.92-.9 2.4-2.4-2.29-2.29.91-.91 2.29 2.29 2.26-2.27.93.91-2.28 2.27zm9.59 1.03h1.82v1.29h-5.6v-1.29h2.05v-5.91q0-.35.02-.72l-1.46 1.22q-.12.1-.25.12-.12.03-.23.01t-.19-.08q-.08-.05-.13-.11l-.54-.75 3.09-2.63h1.42zm6.96-.32h2.6q.28 0 .44.16.17.16.17.41v1.04h-6.95v-.57q0-.18.08-.37.07-.19.23-.35l3.07-3.08q.39-.39.69-.75.31-.35.51-.7t.31-.71q.11-.37.11-.76 0-.37-.1-.64-.11-.28-.3-.47t-.46-.28q-.27-.1-.61-.1-.31 0-.57.09t-.46.24q-.21.16-.35.37t-.21.46q-.12.33-.31.43-.18.11-.54.05l-.91-.16q.1-.73.4-1.28.31-.55.76-.92.45-.36 1.03-.55.59-.18 1.26-.18.7 0 1.28.2.58.21.99.59.42.38.65.91t.23 1.18q0 .56-.16 1.04-.17.47-.45.91-.27.43-.64.84-.37.4-.78.82l-2.28 2.33q.33-.1.65-.15.33-.05.62-.05M81.19 60q0 1.32-.28 2.3-.29.97-.79 1.61t-1.18.95-1.47.31-1.47-.31q-.67-.31-1.17-.95t-.78-1.61q-.28-.98-.28-2.3 0-1.33.28-2.3.28-.98.78-1.61.5-.64 1.17-.95.68-.31 1.47-.31t1.47.31 1.18.95q.5.63.79 1.61.28.97.28 2.3m-1.78 0q0-1.1-.16-1.82-.17-.72-.43-1.15-.27-.43-.62-.6t-.73-.17q-.37 0-.72.17t-.61.6q-.27.43-.43 1.15-.15.72-.15 1.82t.15 1.82q.16.72.43 1.15.26.42.61.6.35.17.72.17.38 0 .73-.17.35-.18.62-.6.26-.43.43-1.15.16-.72.16-1.82"/></svg>